<svg width="700" height="500" viewBox="0 0 700 500" fill="none" xmlns="http://www.w3.org/2000/svg">
<path fill-rule="evenodd" clip-rule="evenodd" d="M360.155 2.32824C324.109 6.8022 278.192 20.9482 242.282 38.6444C156.194 81.0663 92.6894 147.897 59.9911 230.482C44.7234 269.043 29.4413 335.073 7.0062 459.42L0 498.25H134.875H269.751L270.911 493.711C271.813 490.185 292.097 388.416 307.505 310.112C319.721 248.047 347.28 199.219 388.159 167.217C408.2 151.53 424.386 144.779 450.692 141.14C505.705 133.529 554.35 166.955 573.611 225.603C582.956 254.056 582.203 290.429 571.691 318.222L567.686 328.812H456.978C369.227 328.812 346.49 329.335 347.328 331.334C347.911 332.721 364.744 371.071 384.739 416.557L421.089 499.258L491.583 499.789C558.122 500.291 562.011 500.12 560.909 496.763C560.268 494.807 548.63 466.43 535.045 433.702L510.348 374.197L599.52 373.189L688.69 372.18L691.368 362.095C701.494 323.977 702.963 251.924 694.436 211.614C672.541 108.096 607.804 42.3276 497.283 11.3185C460.173 0.906175 402.236 -2.89205 360.155 2.32824Z" fill="black"/>
</svg>
